<svg xmlns="http://www.w3.org/2000/svg" xmlns:xlink="http://www.w3.org/1999/xlink" width="500" zoomAndPan="magnify" viewBox="0 0 375 374.999991" height="500" preserveAspectRatio="xMidYMid meet" version="1.0"><defs><g/><clipPath id="b6253e4f6b"><path d="M 86.667969 153.433594 L 154.917969 153.433594 L 154.917969 221.683594 L 86.667969 221.683594 Z M 86.667969 153.433594 " clip-rule="nonzero"/></clipPath></defs><g fill="#fff0db" fill-opacity="1"><g transform="translate(3.229568, 231.594291)"><g><path d="M 9.265625 -88.40625 C 7.515625 -88.40625 5.890625 -88.585938 4.390625 -88.953125 C 2.898438 -89.316406 1.898438 -89.957031 1.390625 -90.875 C 1.285156 -91.289062 1.257812 -91.832031 1.3125 -92.5 C 1.363281 -93.164062 1.488281 -93.832031 1.6875 -94.5 C 1.894531 -95.175781 2.128906 -95.796875 2.390625 -96.359375 C 2.648438 -96.921875 2.929688 -97.304688 3.234375 -97.515625 C 5.296875 -98.648438 7.640625 -99.445312 10.265625 -99.90625 C 12.890625 -100.375 15.382812 -100.609375 17.75 -100.609375 C 19.289062 -100.609375 20.546875 -100.039062 21.515625 -98.90625 C 22.492188 -97.769531 23.394531 -96.691406 24.21875 -95.671875 C 25.25 -94.117188 25.96875 -91.488281 26.375 -87.78125 C 26.789062 -84.082031 27.023438 -80.097656 27.078125 -75.828125 C 27.128906 -71.566406 27.078125 -67.453125 26.921875 -63.484375 C 26.765625 -59.523438 26.6875 -56.46875 26.6875 -54.3125 C 28.03125 -54.820312 29.238281 -55.332031 30.3125 -55.84375 C 31.394531 -56.363281 32.65625 -57.085938 34.09375 -58.015625 C 36.46875 -60.484375 38.8125 -63.207031 41.125 -66.1875 C 43.4375 -69.175781 45.59375 -72.082031 47.59375 -74.90625 C 49.601562 -77.738281 51.378906 -80.390625 52.921875 -82.859375 C 54.460938 -85.328125 55.695312 -87.28125 56.625 -88.71875 C 57.96875 -92.53125 59.484375 -95.15625 61.171875 -96.59375 C 62.867188 -98.03125 64.179688 -98.75 65.109375 -98.75 C 66.453125 -98.75 67.351562 -98.285156 67.8125 -97.359375 C 68.28125 -96.429688 68.515625 -95.554688 68.515625 -94.734375 C 68.515625 -90.316406 67.738281 -86.460938 66.1875 -83.171875 C 64.644531 -79.878906 62.742188 -76.429688 60.484375 -72.828125 C 58.734375 -70.046875 57.1875 -67.550781 55.84375 -65.34375 C 54.507812 -63.132812 53.222656 -61.101562 51.984375 -59.25 C 50.753906 -57.394531 49.5 -55.644531 48.21875 -54 C 46.9375 -52.351562 45.519531 -50.757812 43.96875 -49.21875 C 46.132812 -45.925781 48.242188 -42.351562 50.296875 -38.5 C 52.359375 -34.644531 54.160156 -31.117188 55.703125 -27.921875 C 56.734375 -25.867188 57.941406 -23.632812 59.328125 -21.21875 C 60.710938 -18.800781 62.253906 -16.507812 63.953125 -14.34375 C 65.648438 -12.1875 67.453125 -10.335938 69.359375 -8.796875 C 71.265625 -7.253906 73.242188 -6.328125 75.296875 -6.015625 C 76.117188 -5.910156 76.679688 -5.445312 76.984375 -4.625 C 77.296875 -3.800781 77.453125 -3.03125 77.453125 -2.3125 C 77.453125 -1.800781 77.171875 -1.285156 76.609375 -0.765625 C 76.046875 -0.253906 75.328125 0.203125 74.453125 0.609375 C 73.578125 1.023438 72.703125 1.382812 71.828125 1.6875 C 70.953125 2 70.207031 2.15625 69.59375 2.15625 C 67.320312 2.15625 65.003906 1.460938 62.640625 0.078125 C 60.273438 -1.304688 57.960938 -3.050781 55.703125 -5.15625 C 53.441406 -7.269531 51.304688 -9.535156 49.296875 -11.953125 C 47.296875 -14.367188 45.570312 -16.609375 44.125 -18.671875 C 40.425781 -24.222656 37.648438 -28.953125 35.796875 -32.859375 C 33.941406 -36.773438 32.398438 -39.609375 31.171875 -41.359375 L 26.6875 -39.5 C 26.6875 -37.445312 26.6875 -35.828125 26.6875 -34.640625 C 26.6875 -33.453125 26.632812 -32.34375 26.53125 -31.3125 C 26.4375 -30.289062 26.335938 -29.210938 26.234375 -28.078125 C 26.128906 -26.953125 25.972656 -25.410156 25.765625 -23.453125 C 25.660156 -23.046875 25.503906 -22.144531 25.296875 -20.75 C 25.097656 -19.363281 24.816406 -17.742188 24.453125 -15.890625 C 24.097656 -14.035156 23.632812 -12.054688 23.0625 -9.953125 C 22.5 -7.847656 21.859375 -5.894531 21.140625 -4.09375 C 20.421875 -2.289062 19.570312 -0.828125 18.59375 0.296875 C 17.613281 1.429688 16.507812 2 15.28125 2 C 14.457031 2 13.398438 1.5625 12.109375 0.6875 C 10.828125 -0.1875 10.1875 -1.445312 10.1875 -3.09375 C 10.1875 -3.289062 10.210938 -3.644531 10.265625 -4.15625 C 10.316406 -4.675781 10.394531 -5.039062 10.5 -5.25 C 10.59375 -5.65625 10.71875 -7.195312 10.875 -9.875 C 11.03125 -12.550781 11.210938 -16.046875 11.421875 -20.359375 C 11.628906 -24.679688 11.78125 -29.644531 11.875 -35.25 C 11.976562 -40.863281 12.082031 -46.675781 12.1875 -52.6875 C 12.289062 -58.707031 12.34375 -64.773438 12.34375 -70.890625 C 12.34375 -77.015625 12.289062 -82.851562 12.1875 -88.40625 Z M 9.265625 -88.40625 "/></g></g></g><g fill="#fff0db" fill-opacity="1"><g transform="translate(82.030922, 231.594291)"><g/></g></g><g fill="#fff0db" fill-opacity="1"><g transform="translate(122.145468, 231.594291)"><g/></g></g><g fill="#fff0db" fill-opacity="1"><g transform="translate(162.253285, 231.594291)"><g><path d="M 6.015625 -72.828125 C 6.015625 -77.253906 6.8125 -81.238281 8.40625 -84.78125 C 10 -88.332031 12.234375 -91.289062 15.109375 -93.65625 C 17.992188 -96.019531 21.390625 -97.789062 25.296875 -98.96875 C 29.210938 -100.15625 33.484375 -100.703125 38.109375 -100.609375 C 42.941406 -100.398438 47.257812 -99.5 51.0625 -97.90625 C 54.875 -96.3125 57.859375 -94.484375 60.015625 -92.421875 C 60.742188 -91.804688 61.539062 -90.929688 62.40625 -89.796875 C 63.28125 -88.671875 64 -87.488281 64.5625 -86.25 C 65.132812 -85.019531 65.445312 -83.835938 65.5 -82.703125 C 65.550781 -81.566406 65.113281 -80.691406 64.1875 -80.078125 C 63.570312 -79.566406 62.773438 -79.3125 61.796875 -79.3125 C 60.816406 -79.3125 59.8125 -79.4375 58.78125 -79.6875 C 57.757812 -79.945312 56.785156 -80.304688 55.859375 -80.765625 C 54.929688 -81.234375 54.210938 -81.675781 53.703125 -82.09375 C 51.535156 -83.832031 48.984375 -85.242188 46.046875 -86.328125 C 43.117188 -87.410156 40.472656 -88.003906 38.109375 -88.109375 C 35.023438 -88.210938 32.300781 -87.925781 29.9375 -87.25 C 27.570312 -86.582031 25.59375 -85.628906 24 -84.390625 C 22.40625 -83.160156 21.195312 -81.75 20.375 -80.15625 C 19.550781 -78.5625 19.140625 -76.941406 19.140625 -75.296875 C 19.140625 -72.421875 20.269531 -69.925781 22.53125 -67.8125 C 24.789062 -65.707031 27.257812 -64.035156 29.9375 -62.796875 C 32.8125 -61.566406 35.816406 -60.304688 38.953125 -59.015625 C 42.097656 -57.734375 45.210938 -56.320312 48.296875 -54.78125 C 51.378906 -53.238281 54.304688 -51.539062 57.078125 -49.6875 C 59.859375 -47.832031 62.300781 -45.695312 64.40625 -43.28125 C 66.519531 -40.863281 68.191406 -38.085938 69.421875 -34.953125 C 70.660156 -31.816406 71.28125 -28.238281 71.28125 -24.21875 C 71.28125 -20.925781 70.5625 -17.710938 69.125 -14.578125 C 67.6875 -11.441406 65.628906 -8.585938 62.953125 -6.015625 C 60.273438 -3.441406 57.007812 -1.332031 53.15625 0.3125 C 49.300781 1.957031 44.957031 2.832031 40.125 2.9375 C 36.519531 3.039062 32.757812 2.679688 28.84375 1.859375 C 24.9375 1.035156 21.335938 -0.300781 18.046875 -2.15625 C 14.753906 -4.007812 11.898438 -6.398438 9.484375 -9.328125 C 7.066406 -12.265625 5.550781 -15.84375 4.9375 -20.0625 C 4.726562 -21.601562 4.78125 -23.039062 5.09375 -24.375 C 5.40625 -25.71875 5.867188 -26.875 6.484375 -27.84375 C 7.097656 -28.820312 7.789062 -29.59375 8.5625 -30.15625 C 9.332031 -30.726562 10.078125 -31.015625 10.796875 -31.015625 C 11.515625 -31.015625 12.234375 -30.628906 12.953125 -29.859375 C 13.679688 -29.085938 14.300781 -28.210938 14.8125 -27.234375 C 15.320312 -26.253906 15.757812 -25.300781 16.125 -24.375 C 16.488281 -23.445312 16.769531 -22.78125 16.96875 -22.375 C 18 -20.007812 19.390625 -18.003906 21.140625 -16.359375 C 22.890625 -14.710938 24.765625 -13.375 26.765625 -12.34375 C 28.773438 -11.3125 30.859375 -10.5625 33.015625 -10.09375 C 35.179688 -9.632812 37.140625 -9.457031 38.890625 -9.5625 C 41.253906 -9.664062 43.515625 -10.078125 45.671875 -10.796875 C 47.828125 -11.515625 49.726562 -12.515625 51.375 -13.796875 C 53.019531 -15.085938 54.332031 -16.6875 55.3125 -18.59375 C 56.289062 -20.5 56.78125 -22.632812 56.78125 -25 C 56.78125 -27.570312 55.773438 -30.117188 53.765625 -32.640625 C 51.765625 -35.160156 49.242188 -37.5 46.203125 -39.65625 C 43.171875 -41.8125 39.828125 -43.789062 36.171875 -45.59375 C 32.523438 -47.394531 29.054688 -48.910156 25.765625 -50.140625 C 20.003906 -52.410156 15.269531 -55.523438 11.5625 -59.484375 C 7.863281 -63.441406 6.015625 -67.890625 6.015625 -72.828125 Z M 6.015625 -72.828125 "/></g></g></g><g fill="#fff0db" fill-opacity="1"><g transform="translate(237.236606, 231.594291)"><g><path d="M 22.84375 -15.578125 C 22.738281 -17.535156 22.632812 -19.441406 22.53125 -21.296875 C 22.425781 -23.148438 22.375 -24.640625 22.375 -25.765625 C 22.375 -28.546875 22.320312 -31.582031 22.21875 -34.875 C 22.113281 -38.164062 22.035156 -41.921875 21.984375 -46.140625 C 21.929688 -50.359375 21.851562 -55.140625 21.75 -60.484375 C 21.65625 -65.835938 21.609375 -72.007812 21.609375 -79 C 21.609375 -80.03125 21.503906 -81.441406 21.296875 -83.234375 C 21.085938 -85.035156 20.570312 -86.96875 19.75 -89.03125 C 17.382812 -89.03125 15.53125 -89.003906 14.1875 -88.953125 C 12.851562 -88.898438 11.3125 -88.925781 9.5625 -89.03125 C 8.84375 -89.03125 8.019531 -89.285156 7.09375 -89.796875 C 6.164062 -90.316406 5.265625 -90.960938 4.390625 -91.734375 C 3.523438 -92.503906 2.804688 -93.328125 2.234375 -94.203125 C 1.671875 -95.078125 1.390625 -95.925781 1.390625 -96.75 C 1.390625 -97.15625 1.617188 -97.507812 2.078125 -97.8125 C 2.546875 -98.125 3.164062 -98.359375 3.9375 -98.515625 C 4.707031 -98.671875 5.554688 -98.773438 6.484375 -98.828125 C 7.410156 -98.878906 8.335938 -98.957031 9.265625 -99.0625 C 10.179688 -99.164062 12.207031 -99.316406 15.34375 -99.515625 C 18.488281 -99.722656 21.882812 -99.929688 25.53125 -100.140625 C 29.1875 -100.347656 32.582031 -100.523438 35.71875 -100.671875 C 38.851562 -100.828125 40.882812 -100.90625 41.8125 -100.90625 C 43.351562 -100.90625 45.023438 -100.625 46.828125 -100.0625 C 48.628906 -99.5 49.53125 -98.753906 49.53125 -97.828125 C 49.53125 -96.691406 49.296875 -95.609375 48.828125 -94.578125 C 48.367188 -93.554688 47.753906 -92.609375 46.984375 -91.734375 C 46.210938 -90.859375 45.390625 -90.160156 44.515625 -89.640625 C 43.640625 -89.128906 42.84375 -88.875 42.125 -88.875 C 40.789062 -88.976562 39.347656 -89.128906 37.796875 -89.328125 C 36.253906 -89.535156 34.097656 -89.539062 31.328125 -89.34375 C 32.765625 -86.976562 33.894531 -84.429688 34.71875 -81.703125 C 35.539062 -78.972656 35.953125 -76.171875 35.953125 -73.296875 C 35.953125 -67.835938 35.953125 -62.71875 35.953125 -57.9375 C 35.953125 -53.15625 35.875 -48.628906 35.71875 -44.359375 C 35.5625 -40.085938 35.351562 -36 35.09375 -32.09375 C 34.84375 -28.1875 34.507812 -24.328125 34.09375 -20.515625 L 33.484375 -15.890625 C 34.617188 -15.890625 35.671875 -15.890625 36.640625 -15.890625 C 37.617188 -15.890625 38.625 -15.835938 39.65625 -15.734375 C 41.195312 -15.628906 42.554688 -15.472656 43.734375 -15.265625 C 44.921875 -15.066406 46.082031 -14.8125 47.21875 -14.5 C 47.519531 -14.300781 47.976562 -13.941406 48.59375 -13.421875 C 49.21875 -12.910156 49.8125 -12.269531 50.375 -11.5 C 50.945312 -10.726562 51.460938 -9.929688 51.921875 -9.109375 C 52.378906 -8.285156 52.660156 -7.515625 52.765625 -6.796875 C 52.867188 -6.171875 52.660156 -5.472656 52.140625 -4.703125 C 51.628906 -3.929688 51.015625 -3.238281 50.296875 -2.625 C 49.578125 -2.007812 48.832031 -1.519531 48.0625 -1.15625 C 47.289062 -0.800781 46.597656 -0.773438 45.984375 -1.078125 C 43.617188 -2.210938 40.582031 -3.007812 36.875 -3.46875 C 33.175781 -3.9375 29.007812 -4.066406 24.375 -3.859375 C 20.570312 -3.648438 17.203125 -3.441406 14.265625 -3.234375 C 11.335938 -3.035156 8.742188 -2.578125 6.484375 -1.859375 C 5.867188 -1.648438 5.125 -1.90625 4.25 -2.625 C 3.375 -3.34375 2.882812 -3.859375 2.78125 -4.171875 C 2.675781 -5.398438 2.929688 -6.503906 3.546875 -7.484375 C 4.160156 -8.460938 4.90625 -9.335938 5.78125 -10.109375 C 6.65625 -10.878906 7.554688 -11.492188 8.484375 -11.953125 C 9.410156 -12.421875 10.128906 -12.757812 10.640625 -12.96875 C 13.835938 -13.988281 17.90625 -14.8125 22.84375 -15.4375 Z M 22.84375 -15.578125 "/></g></g></g><g fill="#fff0db" fill-opacity="1"><g transform="translate(293.088377, 231.594291)"><g><path d="M 39.65625 -83.9375 C 39.039062 -84.351562 38.320312 -84.867188 37.5 -85.484375 C 36.675781 -86.097656 35.828125 -86.789062 34.953125 -87.5625 C 34.078125 -88.332031 33.328125 -89.101562 32.703125 -89.875 C 32.085938 -90.644531 31.726562 -91.390625 31.625 -92.109375 C 31.425781 -92.929688 31.425781 -94.035156 31.625 -95.421875 C 31.832031 -96.816406 32.398438 -97.515625 33.328125 -97.515625 C 33.835938 -97.515625 34.425781 -97.410156 35.09375 -97.203125 C 35.769531 -97.003906 36.363281 -96.800781 36.875 -96.59375 C 38.113281 -96.175781 39.425781 -95.582031 40.8125 -94.8125 C 42.195312 -94.039062 43.507812 -93.242188 44.75 -92.421875 C 46.394531 -91.085938 47.832031 -88.878906 49.0625 -85.796875 C 52.769531 -75.398438 56.707031 -64.800781 60.875 -54 C 65.039062 -43.195312 69.539062 -31.316406 74.375 -18.359375 C 75.300781 -16.097656 75.96875 -13.578125 76.375 -10.796875 C 76.789062 -8.023438 76.972656 -5.425781 76.921875 -3 C 76.867188 -0.582031 76.554688 1.445312 75.984375 3.09375 C 75.421875 4.738281 74.625 5.5625 73.59375 5.5625 C 72.976562 5.5625 72.207031 4.941406 71.28125 3.703125 C 70.351562 2.472656 69.453125 1.035156 68.578125 -0.609375 C 67.710938 -2.265625 66.914062 -3.890625 66.1875 -5.484375 C 65.46875 -7.078125 64.957031 -8.234375 64.65625 -8.953125 L 54.625 -33.171875 C 51.738281 -32.242188 48.1875 -31.394531 43.96875 -30.625 C 39.757812 -29.851562 34.722656 -29.570312 28.859375 -29.78125 C 28.546875 -28.34375 27.898438 -26.101562 26.921875 -23.0625 C 25.941406 -20.03125 24.859375 -16.894531 23.671875 -13.65625 C 22.492188 -10.414062 21.335938 -7.378906 20.203125 -4.546875 C 19.078125 -1.722656 18.15625 0.148438 17.4375 1.078125 C 16.613281 2.109375 15.632812 3.007812 14.5 3.78125 C 13.375 4.550781 11.78125 5.039062 9.71875 5.25 C 9.3125 5.25 8.671875 5.222656 7.796875 5.171875 C 6.921875 5.117188 6.019531 5.015625 5.09375 4.859375 C 4.164062 4.703125 3.367188 4.441406 2.703125 4.078125 C 2.035156 3.722656 1.703125 3.289062 1.703125 2.78125 C 1.703125 2.257812 2.210938 1.742188 3.234375 1.234375 C 4.265625 0.722656 4.988281 0.257812 5.40625 -0.15625 C 6.425781 -2.007812 7.503906 -4.296875 8.640625 -7.015625 C 9.773438 -9.742188 10.878906 -12.546875 11.953125 -15.421875 C 13.035156 -18.304688 14.039062 -21.132812 14.96875 -23.90625 C 15.894531 -26.6875 16.664062 -29.109375 17.28125 -31.171875 C 16.769531 -31.171875 16.148438 -31.269531 15.421875 -31.46875 C 14.703125 -31.675781 13.929688 -31.910156 13.109375 -32.171875 C 12.285156 -32.429688 11.488281 -32.738281 10.71875 -33.09375 C 9.945312 -33.457031 9.359375 -33.84375 8.953125 -34.25 C 8.128906 -35.070312 7.429688 -36.070312 6.859375 -37.25 C 6.296875 -38.4375 6.117188 -39.492188 6.328125 -40.421875 C 6.429688 -40.835938 6.96875 -41.070312 7.9375 -41.125 C 8.914062 -41.175781 9.71875 -41.253906 10.34375 -41.359375 L 15.890625 -41.359375 C 16.921875 -41.359375 17.847656 -41.332031 18.671875 -41.28125 C 19.492188 -41.226562 20.007812 -41.203125 20.21875 -41.203125 L 29.9375 -72.0625 C 30.550781 -74.425781 31.5 -76.53125 32.78125 -78.375 C 34.070312 -80.226562 35.4375 -81.515625 36.875 -82.234375 Z M 41.046875 -73.296875 C 40.429688 -71.234375 39.734375 -68.8125 38.953125 -66.03125 C 38.179688 -63.257812 37.382812 -60.378906 36.5625 -57.390625 C 35.738281 -54.410156 34.941406 -51.476562 34.171875 -48.59375 C 33.398438 -45.71875 32.707031 -43.148438 32.09375 -40.890625 C 35.070312 -40.785156 38.3125 -40.910156 41.8125 -41.265625 C 45.3125 -41.628906 48.398438 -42.222656 51.078125 -43.046875 C 49.328125 -48.503906 47.859375 -53.054688 46.671875 -56.703125 C 45.492188 -60.359375 44.519531 -63.289062 43.75 -65.5 C 42.976562 -67.707031 42.410156 -69.351562 42.046875 -70.4375 C 41.679688 -71.519531 41.398438 -72.265625 41.203125 -72.671875 Z M 41.046875 -73.296875 "/></g></g></g><g clip-path="url(#b6253e4f6b)"><path fill="#353434" d="M 154.933594 187.570312 C 154.933594 206.417969 139.652344 221.699219 120.804688 221.699219 C 101.957031 221.699219 86.675781 206.417969 86.675781 187.570312 C 86.679688 168.722656 101.957031 153.445312 120.804688 153.445312 C 139.652344 153.445312 154.933594 168.722656 154.933594 187.570312 " fill-opacity="1" fill-rule="nonzero"/></g><path fill="#ffffff" d="M 120.8125 155.699219 L 120.796875 155.699219 C 103.195312 155.703125 88.929688 169.96875 88.929688 187.570312 C 88.929688 205.171875 103.195312 219.4375 120.796875 219.445312 L 120.8125 219.445312 C 138.414062 219.4375 152.679688 205.171875 152.679688 187.570312 C 152.679688 169.96875 138.414062 155.703125 120.8125 155.699219 " fill-opacity="1" fill-rule="nonzero"/><path fill="#1f4578" d="M 133.707031 187.238281 C 133.535156 183.828125 130.714844 181.117188 127.261719 181.117188 C 123.695312 181.117188 120.804688 184.003906 120.804688 187.570312 C 120.804688 191.136719 117.914062 194.027344 114.347656 194.027344 C 110.894531 194.027344 108.074219 191.316406 107.902344 187.902344 C 108.078125 194.878906 113.785156 200.484375 120.804688 200.484375 C 127.824219 200.484375 133.53125 194.878906 133.707031 187.902344 C 133.710938 187.792969 133.71875 187.683594 133.71875 187.570312 C 133.71875 187.457031 133.710938 187.351562 133.707031 187.238281 " fill-opacity="1" fill-rule="nonzero"/><path fill="#cd1938" d="M 120.804688 174.65625 C 113.785156 174.65625 108.078125 180.261719 107.902344 187.238281 C 107.898438 187.351562 107.890625 187.457031 107.890625 187.570312 C 107.890625 187.683594 107.898438 187.792969 107.902344 187.902344 C 108.074219 191.316406 110.894531 194.027344 114.347656 194.027344 C 117.914062 194.027344 120.804688 191.136719 120.804688 187.570312 C 120.804688 184.003906 123.695312 181.117188 127.261719 181.117188 C 130.714844 181.117188 133.535156 183.828125 133.707031 187.238281 C 133.53125 180.261719 127.824219 174.65625 120.804688 174.65625 " fill-opacity="1" fill-rule="nonzero"/><path fill="#1a171a" d="M 101.585938 167.707031 L 94.40625 179.382812 L 93.113281 178.589844 L 100.292969 166.914062 L 101.585938 167.707031 " fill-opacity="1" fill-rule="nonzero"/><path fill="#1a171a" d="M 103.75 169.039062 L 96.570312 180.714844 L 95.277344 179.917969 L 102.457031 168.246094 L 103.75 169.039062 " fill-opacity="1" fill-rule="nonzero"/><path fill="#1a171a" d="M 105.914062 170.371094 L 98.734375 182.046875 L 97.445312 181.25 L 104.621094 169.578125 L 105.914062 170.371094 " fill-opacity="1" fill-rule="nonzero"/><path fill="#1a171a" d="M 135.695312 204.769531 L 136.988281 205.5625 L 140.304688 200.164062 L 139.015625 199.367188 L 135.695312 204.769531 " fill-opacity="1" fill-rule="nonzero"/><path fill="#1a171a" d="M 144.164062 193.890625 L 142.871094 193.097656 L 139.550781 198.496094 L 140.84375 199.289062 L 144.164062 193.890625 " fill-opacity="1" fill-rule="nonzero"/><path fill="#1a171a" d="M 146.328125 195.222656 L 145.039062 194.429688 L 141.714844 199.828125 L 143.007812 200.621094 L 146.328125 195.222656 " fill-opacity="1" fill-rule="nonzero"/><path fill="#1a171a" d="M 137.859375 206.101562 L 139.152344 206.894531 L 142.472656 201.496094 L 141.179688 200.699219 L 137.859375 206.101562 " fill-opacity="1" fill-rule="nonzero"/><path fill="#1a171a" d="M 148.496094 196.554688 L 147.203125 195.757812 L 143.878906 201.160156 L 145.171875 201.953125 L 148.496094 196.554688 " fill-opacity="1" fill-rule="nonzero"/><path fill="#1a171a" d="M 140.023438 207.433594 L 141.316406 208.226562 L 144.636719 202.824219 L 143.34375 202.03125 L 140.023438 207.433594 " fill-opacity="1" fill-rule="nonzero"/><path fill="#1a171a" d="M 144.980469 172.863281 L 141.78125 167.390625 L 140.472656 168.152344 L 143.667969 173.628906 L 144.980469 172.863281 " fill-opacity="1" fill-rule="nonzero"/><path fill="#1a171a" d="M 145.496094 173.75 L 144.1875 174.511719 L 147.382812 179.988281 L 148.691406 179.222656 L 145.496094 173.75 " fill-opacity="1" fill-rule="nonzero"/><path fill="#1a171a" d="M 145.1875 181.269531 L 138.277344 169.433594 L 139.585938 168.671875 L 146.496094 180.503906 L 145.1875 181.269531 " fill-opacity="1" fill-rule="nonzero"/><path fill="#1a171a" d="M 140.589844 175.425781 L 137.394531 169.953125 L 136.085938 170.714844 L 139.28125 176.191406 L 140.589844 175.425781 " fill-opacity="1" fill-rule="nonzero"/><path fill="#1a171a" d="M 141.105469 176.3125 L 139.796875 177.078125 L 142.992188 182.550781 L 144.304688 181.785156 L 141.105469 176.3125 " fill-opacity="1" fill-rule="nonzero"/><path fill="#1a171a" d="M 98.617188 192.589844 L 97.304688 193.355469 L 104.214844 205.191406 L 105.527344 204.425781 L 98.617188 192.589844 " fill-opacity="1" fill-rule="nonzero"/><path fill="#1a171a" d="M 92.917969 195.917969 L 99.828125 207.753906 L 101.136719 206.988281 L 94.226562 195.152344 L 92.917969 195.917969 " fill-opacity="1" fill-rule="nonzero"/><path fill="#1a171a" d="M 99.617188 199.34375 L 96.421875 193.871094 L 95.113281 194.636719 L 98.308594 200.113281 L 99.617188 199.34375 " fill-opacity="1" fill-rule="nonzero"/><path fill="#1a171a" d="M 98.824219 200.996094 L 102.019531 206.472656 L 103.328125 205.707031 L 100.132812 200.230469 L 98.824219 200.996094 " fill-opacity="1" fill-rule="nonzero"/><path fill="#282b2c" d="M 120.789062 219.445312 L 120.773438 219.445312 L 120.789062 219.445312 M 120.828125 219.445312 L 120.832031 219.445312 L 120.828125 219.445312 M 120.765625 219.445312 L 120.75 219.445312 L 120.765625 219.445312 M 120.851562 219.445312 L 120.855469 219.445312 L 120.851562 219.445312 M 120.742188 219.445312 L 120.71875 219.445312 L 120.742188 219.445312 M 120.878906 219.445312 L 120.882812 219.445312 L 120.878906 219.445312 M 120.714844 219.445312 L 120.691406 219.445312 L 120.714844 219.445312 M 120.90625 219.445312 L 120.90625 219.445312 M 120.691406 219.445312 C 118.003906 219.433594 115.394531 219.09375 112.902344 218.457031 C 115.394531 219.09375 118.003906 219.433594 120.691406 219.445312 M 120.929688 219.445312 L 120.933594 219.445312 L 120.929688 219.445312 M 120.957031 219.445312 L 120.960938 219.445312 L 120.957031 219.445312 M 120.984375 219.445312 L 120.984375 219.445312 M 121.007812 219.445312 L 121.011719 219.445312 L 121.007812 219.445312 M 121.035156 219.445312 L 121.035156 219.445312 M 121.058594 219.445312 L 121.0625 219.445312 L 121.058594 219.445312 M 121.085938 219.445312 L 121.089844 219.445312 L 121.085938 219.445312 M 121.113281 219.445312 L 121.113281 219.445312 M 121.136719 219.445312 L 121.140625 219.445312 L 121.136719 219.445312 M 121.164062 219.441406 L 121.164062 219.441406 M 121.1875 219.441406 L 121.191406 219.441406 L 121.1875 219.441406 M 121.242188 219.441406 L 121.242188 219.441406 M 121.265625 219.441406 L 121.269531 219.441406 L 121.265625 219.441406 M 112.902344 218.457031 C 112.894531 218.457031 112.886719 218.453125 112.878906 218.453125 C 112.890625 218.453125 112.894531 218.457031 112.902344 218.457031 M 112.878906 218.453125 C 112.871094 218.449219 112.867188 218.449219 112.859375 218.445312 C 112.867188 218.449219 112.871094 218.449219 112.878906 218.453125 M 112.851562 218.445312 C 112.847656 218.441406 112.839844 218.441406 112.835938 218.441406 C 112.839844 218.441406 112.847656 218.441406 112.851562 218.445312 M 112.824219 218.4375 C 112.824219 218.4375 112.820312 218.4375 112.816406 218.4375 C 112.816406 218.4375 112.824219 218.4375 112.824219 218.4375 M 112.796875 218.429688 L 112.789062 218.429688 L 112.796875 218.429688 M 112.777344 218.425781 L 112.773438 218.425781 L 112.777344 218.425781 " fill-opacity="1" fill-rule="nonzero"/><path fill="#b0c0c8" d="M 120.804688 219.445312 L 120.691406 219.445312 C 118.003906 219.433594 115.394531 219.09375 112.902344 218.457031 C 112.894531 218.457031 112.890625 218.453125 112.878906 218.453125 C 112.871094 218.449219 112.867188 218.449219 112.859375 218.445312 L 112.851562 218.445312 C 112.847656 218.441406 112.839844 218.441406 112.835938 218.441406 C 112.832031 218.4375 112.828125 218.4375 112.824219 218.4375 C 112.824219 218.4375 112.816406 218.4375 112.816406 218.4375 C 112.808594 218.433594 112.800781 218.429688 112.796875 218.429688 L 112.789062 218.429688 C 112.785156 218.425781 112.78125 218.425781 112.777344 218.425781 L 112.773438 218.425781 C 104.9375 216.390625 98.273438 211.449219 94 204.824219 C 99.59375 209.675781 106.894531 212.613281 114.878906 212.613281 C 122.871094 212.613281 130.171875 209.671875 135.769531 204.816406 L 136.988281 205.5625 L 140.304688 200.164062 L 140.203125 200.101562 C 140.410156 199.828125 140.617188 199.550781 140.816406 199.273438 L 140.84375 199.289062 L 141.125 198.832031 C 141.765625 197.902344 142.359375 196.941406 142.898438 195.941406 L 144.164062 193.890625 L 143.976562 193.773438 C 145.761719 189.796875 146.753906 185.382812 146.753906 180.742188 C 146.753906 180.09375 146.734375 179.453125 146.699219 178.8125 L 147.382812 179.988281 L 148.691406 179.222656 L 146.242188 175.03125 C 145.484375 170.839844 143.90625 166.933594 141.6875 163.488281 C 148.417969 169.332031 152.675781 177.953125 152.675781 187.570312 C 152.675781 205 138.683594 219.167969 121.320312 219.441406 L 121.164062 219.441406 C 121.15625 219.441406 121.148438 219.441406 121.140625 219.445312 L 120.804688 219.445312 M 143.34375 202.03125 L 140.023438 207.433594 L 141.316406 208.226562 L 144.636719 202.824219 L 143.34375 202.03125 M 141.179688 200.699219 L 137.859375 206.101562 L 139.152344 206.894531 L 142.472656 201.496094 L 141.179688 200.699219 M 147.203125 195.757812 L 143.878906 201.160156 L 145.171875 201.953125 L 148.496094 196.554688 L 147.203125 195.757812 M 145.039062 194.429688 L 141.714844 199.828125 L 143.007812 200.621094 L 146.328125 195.222656 L 145.039062 194.429688 " fill-opacity="1" fill-rule="nonzero"/><path fill="#141215" d="M 136.988281 205.5625 L 135.769531 204.816406 C 137.398438 203.398438 138.886719 201.816406 140.203125 200.101562 L 140.304688 200.164062 L 136.988281 205.5625 " fill-opacity="1" fill-rule="nonzero"/><path fill="#141215" d="M 140.84375 199.289062 L 140.816406 199.273438 C 140.917969 199.128906 141.023438 198.980469 141.125 198.832031 L 140.84375 199.289062 M 142.898438 195.941406 C 143.285156 195.238281 143.644531 194.511719 143.976562 193.773438 L 144.164062 193.890625 L 142.898438 195.941406 " fill-opacity="1" fill-rule="nonzero"/><path fill="#141215" d="M 143.007812 200.621094 L 141.714844 199.828125 L 145.039062 194.429688 L 146.328125 195.222656 L 143.007812 200.621094 " fill-opacity="1" fill-rule="nonzero"/><path fill="#141215" d="M 139.152344 206.894531 L 137.859375 206.101562 L 141.179688 200.699219 L 142.472656 201.496094 L 139.152344 206.894531 " fill-opacity="1" fill-rule="nonzero"/><path fill="#141215" d="M 145.171875 201.953125 L 143.878906 201.160156 L 147.203125 195.757812 L 148.496094 196.554688 L 145.171875 201.953125 " fill-opacity="1" fill-rule="nonzero"/><path fill="#141215" d="M 141.316406 208.226562 L 140.023438 207.433594 L 143.34375 202.03125 L 144.636719 202.824219 L 141.316406 208.226562 " fill-opacity="1" fill-rule="nonzero"/><path fill="#141215" d="M 147.382812 179.988281 L 146.699219 178.8125 C 146.621094 177.53125 146.46875 176.265625 146.242188 175.03125 L 148.691406 179.222656 L 147.382812 179.988281 " fill-opacity="1" fill-rule="nonzero"/><path fill="#ffffff" d="M 90.277344 192.035156 C 90.25 192.035156 90.222656 192.019531 90.195312 191.996094 C 89.308594 191.105469 89.160156 175.429688 98.734375 165.855469 C 105.984375 158.601562 116.738281 156.925781 121.914062 156.925781 C 123.574219 156.925781 124.660156 157.097656 124.878906 157.3125 C 125.746094 158.179688 112.226562 159.433594 102.675781 168.378906 L 102.457031 168.246094 L 101.933594 169.097656 C 92.664062 178.386719 91.167969 192.035156 90.277344 192.035156 M 100.292969 166.914062 L 93.113281 178.589844 L 94.40625 179.382812 L 101.585938 167.707031 L 100.292969 166.914062 " fill-opacity="1" fill-rule="nonzero"/><path fill="#453d43" d="M 94.40625 179.382812 L 93.113281 178.589844 L 100.292969 166.914062 L 101.585938 167.707031 L 94.40625 179.382812 " fill-opacity="1" fill-rule="nonzero"/><path fill="#453d43" d="M 101.933594 169.097656 L 102.457031 168.246094 L 102.675781 168.378906 C 102.433594 168.605469 102.195312 168.839844 101.957031 169.074219 C 101.949219 169.082031 101.941406 169.089844 101.933594 169.097656 " fill-opacity="1" fill-rule="nonzero"/></svg>